<svg width="38" height="15" viewBox="0 0 38 15" fill="none" xmlns="http://www.w3.org/2000/svg">
<rect y="13" width="14" height="2" rx="1" fill="#4B2E1F"/>
<rect x="24" y="13" width="14" height="2" rx="1" fill="#4B2E1F"/>
<rect x="22.5" y="10.5" width="12" height="1" rx="0.5" fill="#A67C52" stroke="#A67C52"/>
<rect x="3.5" y="10.5" width="12" height="1" rx="0.5" fill="#A67C52" stroke="#A67C52"/>
<path d="M19 13.5C20.2403 13.5 21.4082 13.154 22.249 12.5654C22.8307 12.1582 23.2066 11.6718 23.3828 11.1699L22.4238 11.4102C22.4005 11.4693 22.3736 11.528 22.3379 11.583C22.2293 11.7501 22.0856 11.8582 21.9639 11.9336C21.85 12.0041 21.7106 12.072 21.6113 12.123C21.5001 12.1802 21.3943 12.2379 21.2891 12.3115C20.6611 12.751 19.8368 12.9824 19 12.9824C18.1632 12.9824 17.3389 12.751 16.7109 12.3115C16.6057 12.2379 16.4999 12.1802 16.3887 12.123C16.2894 12.072 16.15 12.0041 16.0361 11.9336C15.9144 11.8582 15.7707 11.7501 15.6621 11.583C15.6264 11.5279 15.5985 11.4694 15.5752 11.4102L14.6162 11.1699C14.7924 11.6719 15.1691 12.1581 15.751 12.5654C16.5918 13.154 17.7597 13.5 19 13.5Z" fill="#A67C52" stroke="#A67C52"/>
<path d="M7.75 4.76C8.25 4.91333 8.64333 5.16667 8.93 5.52C9.22333 5.86667 9.37 6.26333 9.37 6.71C9.37 7.13 9.19667 7.52667 8.85 7.9C8.51 8.26667 8.08333 8.56 7.57 8.78C7.06333 9 6.58 9.11 6.12 9.11C5.78667 9.11 5.46 9.09333 5.14 9.06C4.60667 9.02667 4.19333 9.01 3.9 9.01H2.58V8.65L3.52 7.91V1.92L2.46 1.59L2.69 1.14H3.89C4.49667 1.14 5.09333 1.12 5.68 1.08C6.13333 1.05333 6.46667 1.04 6.68 1.04C7.13333 1.04 7.53333 1.12667 7.88 1.3C8.22667 1.47333 8.49333 1.71 8.68 2.01C8.87333 2.30333 8.97 2.63333 8.97 3C8.97 3.33333 8.85667 3.65333 8.63 3.96C8.41 4.26667 8.11667 4.53 7.75 4.75V4.76ZM7.5 3.49C7.5 2.97667 7.36333 2.55667 7.09 2.23C6.82333 1.90333 6.42667 1.74 5.9 1.74C5.53333 1.74 5.19333 1.84333 4.88 2.05V4.69H6.25C6.64333 4.69 6.95 4.58667 7.17 4.38C7.39 4.17333 7.5 3.87667 7.5 3.49ZM6.4 8.33C6.86 8.33 7.22333 8.21333 7.49 7.98C7.76333 7.74667 7.9 7.43333 7.9 7.04C7.9 6.53333 7.75333 6.12333 7.46 5.81C7.16667 5.49667 6.73333 5.33 6.16 5.31C6.11333 5.31667 6.05 5.32 5.97 5.32H4.88V8.07C5.30667 8.23667 5.81333 8.32 6.4 8.32V8.33ZM13.6404 3.57C14.0937 3.57 14.4971 3.68667 14.8504 3.92C15.2104 4.14667 15.4904 4.45667 15.6904 4.85C15.8904 5.24333 15.9904 5.68 15.9904 6.16C15.9904 6.68 15.8304 7.16667 15.5104 7.62C15.1971 8.06667 14.8004 8.42667 14.3204 8.7C13.8404 8.96667 13.3771 9.1 12.9304 9.1C12.4837 9.1 12.0804 8.98667 11.7204 8.76C11.3671 8.52667 11.0871 8.21333 10.8804 7.82C10.6804 7.42667 10.5804 6.99 10.5804 6.51C10.5804 5.99 10.7371 5.50667 11.0504 5.06C11.3704 4.60667 11.7704 4.24667 12.2504 3.98C12.7304 3.70667 13.1937 3.57 13.6404 3.57ZM13.0604 4.48C12.3404 4.48 11.9804 4.99667 11.9804 6.03C11.9804 6.65 12.1104 7.16667 12.3704 7.58C12.6371 7.99333 13.0171 8.2 13.5104 8.2C13.8637 8.2 14.1304 8.06667 14.3104 7.8C14.4904 7.53333 14.5804 7.14333 14.5804 6.63C14.5804 6.01667 14.4471 5.50667 14.1804 5.1C13.9204 4.68667 13.5471 4.48 13.0604 4.48ZM20.3982 3.57C20.8515 3.57 21.2549 3.68667 21.6082 3.92C21.9682 4.14667 22.2482 4.45667 22.4482 4.85C22.6482 5.24333 22.7482 5.68 22.7482 6.16C22.7482 6.68 22.5882 7.16667 22.2682 7.62C21.9549 8.06667 21.5582 8.42667 21.0782 8.7C20.5982 8.96667 20.1349 9.1 19.6882 9.1C19.2415 9.1 18.8382 8.98667 18.4782 8.76C18.1249 8.52667 17.8449 8.21333 17.6382 7.82C17.4382 7.42667 17.3382 6.99 17.3382 6.51C17.3382 5.99 17.4949 5.50667 17.8082 5.06C18.1282 4.60667 18.5282 4.24667 19.0082 3.98C19.4882 3.70667 19.9515 3.57 20.3982 3.57ZM19.8182 4.48C19.0982 4.48 18.7382 4.99667 18.7382 6.03C18.7382 6.65 18.8682 7.16667 19.1282 7.58C19.3949 7.99333 19.7749 8.2 20.2682 8.2C20.6215 8.2 20.8882 8.06667 21.0682 7.8C21.2482 7.53333 21.3382 7.14333 21.3382 6.63C21.3382 6.01667 21.2049 5.50667 20.9382 5.1C20.6782 4.68667 20.3049 4.48 19.8182 4.48ZM26.8263 8.56L26.5963 9.01H23.7362V8.65L24.6263 7.94V1.92L23.7362 1.3V0.939999L25.4963 0.27H25.9263V8.23L26.8263 8.56ZM30.0263 9.01H28.2563L26.4263 6.36L28.2763 4.82L27.2663 4.13L27.4863 3.68H29.9763V4.04L27.6963 5.95L29.3163 8.21L30.2463 8.56L30.0263 9.01ZM34.0687 7.88C34.0687 7.70667 33.9687 7.54667 33.7687 7.4C33.5687 7.24667 33.262 7.06 32.8487 6.84C32.4953 6.65333 32.212 6.49333 31.9987 6.36C31.792 6.22667 31.612 6.07333 31.4587 5.9C31.312 5.72 31.2387 5.52333 31.2387 5.31C31.2387 5.07 31.342 4.81333 31.5487 4.54C31.7553 4.26667 32.0087 4.03667 32.3087 3.85C32.6153 3.66333 32.8953 3.57 33.1487 3.57C33.462 3.57 33.8253 3.61 34.2387 3.69C34.652 3.76333 34.952 3.84667 35.1387 3.94V5.51H34.7087C34.502 5.11667 34.262 4.81 33.9887 4.59C33.7153 4.36333 33.432 4.25 33.1387 4.25C32.9453 4.25 32.7887 4.30333 32.6687 4.41C32.5553 4.51 32.4987 4.63667 32.4987 4.79C32.4987 4.98333 32.602 5.15667 32.8087 5.31C33.0153 5.46333 33.3353 5.65667 33.7687 5.89C34.1087 6.06333 34.382 6.21667 34.5887 6.35C34.7953 6.47667 34.972 6.62667 35.1187 6.8C35.2653 6.96667 35.3387 7.15333 35.3387 7.36C35.3387 7.60667 35.2287 7.86667 35.0087 8.14C34.7953 8.40667 34.532 8.63333 34.2187 8.82C33.912 9.00667 33.6287 9.1 33.3687 9.1C33.0353 9.1 32.6353 9.06 32.1687 8.98C31.7087 8.9 31.382 8.81667 31.1887 8.73V7.15H31.6187C31.8453 7.55 32.1153 7.86333 32.4287 8.09C32.742 8.31 33.0587 8.42 33.3787 8.42C33.5853 8.42 33.752 8.36667 33.8787 8.26C34.0053 8.15333 34.0687 8.02667 34.0687 7.88Z" fill="#6B4632"/>
</svg>
